<?xml version="1.0" standalone="no"?>
<!DOCTYPE svg PUBLIC "-//W3C//DTD SVG 20010904//EN"
 "http://www.w3.org/TR/2001/REC-SVG-20010904/DTD/svg10.dtd">
<svg version="1.0" xmlns="http://www.w3.org/2000/svg"
 width="243.000000pt" height="129.000000pt" viewBox="0 0 243.000000 129.000000"
 preserveAspectRatio="xMidYMid meet">

<g transform="translate(0.000000,129.000000) scale(0.100000,-0.100000)"
fill="#000000" stroke="none">
<path d="M1075 1210 c22 -24 26 -19 -55 -57 -117 -55 -193 -125 -206 -190 -14
-70 77 -95 188 -53 28 11 53 19 54 17 1 -1 9 -29 18 -62 10 -33 29 -77 42 -98
24 -37 26 -38 45 -22 20 19 52 98 63 156 l6 36 66 -23 c79 -29 135 -31 157 -6
55 61 -30 177 -183 250 -30 15 -57 28 -59 29 -2 2 4 12 14 23 22 24 9 27 -17
3 -10 -9 -35 -16 -58 -16 -23 0 -48 7 -58 16 -26 24 -39 21 -17 -3z m195 -77
c118 -58 202 -156 173 -202 -15 -23 -88 -20 -155 8 l-56 22 -4 64 c-3 51 -9
70 -28 90 -33 35 -81 32 -94 -6 -17 -50 13 -105 82 -149 22 -14 23 -18 12 -65
-6 -27 -20 -70 -31 -95 l-20 -45 -24 40 c-14 22 -29 63 -35 92 -10 47 -9 54 9
72 25 25 26 34 6 51 -19 16 -42 -1 -47 -33 -4 -28 -94 -66 -155 -67 -129 -1
-64 129 107 215 127 64 145 65 260 8z m-85 -33 c21 -23 34 -120 17 -120 -19 0
-82 69 -82 90 0 51 32 66 65 30z m-85 -114 c0 -3 -4 -8 -10 -11 -5 -3 -10 -1
-10 4 0 6 5 11 10 11 6 0 10 -2 10 -4z"/>
<path d="M940 830 c8 -5 20 -10 25 -10 6 0 3 5 -5 10 -8 5 -19 10 -25 10 -5 0
-3 -5 5 -10z"/>
<path d="M928 793 c7 -3 16 -2 19 1 4 3 -2 6 -13 5 -11 0 -14 -3 -6 -6z"/>
<path d="M978 783 c7 -3 16 -2 19 1 4 3 -2 6 -13 5 -11 0 -14 -3 -6 -6z"/>
<path d="M883 753 c9 -2 25 -2 35 0 9 3 1 5 -18 5 -19 0 -27 -2 -17 -5z"/>
<path d="M978 753 c12 -2 30 -2 40 0 9 3 -1 5 -23 4 -22 0 -30 -2 -17 -4z"/>
<path d="M1273 753 c9 -2 23 -2 30 0 6 3 -1 5 -18 5 -16 0 -22 -2 -12 -5z"/>
<path d="M1353 753 c15 -2 37 -2 50 0 12 2 0 4 -28 4 -27 0 -38 -2 -22 -4z"/>
<path d="M958 723 c6 -2 18 -2 25 0 6 3 1 5 -13 5 -14 0 -19 -2 -12 -5z"/>
<path d="M1308 723 c7 -3 16 -2 19 1 4 3 -2 6 -13 5 -11 0 -14 -3 -6 -6z"/>
<path d="M898 713 c6 -2 18 -2 25 0 6 3 1 5 -13 5 -14 0 -19 -2 -12 -5z"/>
<path d="M1033 705 c0 -8 4 -12 9 -9 4 3 8 9 8 15 0 5 -4 9 -8 9 -5 0 -9 -7
-9 -15z"/>
<path d="M1378 713 c7 -3 16 -2 19 1 4 3 -2 6 -13 5 -11 0 -14 -3 -6 -6z"/>
<path d="M1245 670 c10 -11 20 -20 23 -20 3 0 -3 9 -13 20 -10 11 -20 20 -23
20 -3 0 3 -9 13 -20z"/>
<path d="M1261 686 c2 -2 15 -9 29 -15 24 -11 24 -11 6 3 -16 13 -49 24 -35
12z"/>
<path d="M985 670 c-3 -6 1 -7 9 -4 18 7 21 14 7 14 -6 0 -13 -4 -16 -10z"/>
<path d="M1019 653 c-13 -16 -12 -17 4 -4 9 7 17 15 17 17 0 8 -8 3 -21 -13z"/>
<path d="M1211 640 c29 -45 29 -45 29 -34 0 5 -12 23 -26 39 l-26 30 23 -35z"/>
<path d="M944 644 c-18 -14 -18 -15 4 -4 12 6 22 13 22 15 0 8 -5 6 -26 -11z"/>
<path d="M1086 652 c-3 -5 1 -9 9 -9 8 0 12 4 9 9 -3 4 -7 8 -9 8 -2 0 -6 -4
-9 -8z"/>
<path d="M1280 646 c0 -2 8 -10 18 -17 15 -13 16 -12 3 4 -13 16 -21 21 -21
13z"/>
<path d="M1340 646 c0 -3 9 -10 20 -16 11 -6 20 -8 20 -6 0 3 -9 10 -20 16
-11 6 -20 8 -20 6z"/>
<path d="M1060 610 c-6 -11 -8 -20 -6 -20 3 0 10 9 16 20 6 11 8 20 6 20 -3 0
-10 -9 -16 -20z"/>
<path d="M1122 605 c0 -16 2 -22 5 -12 2 9 2 23 0 30 -3 6 -5 -1 -5 -18z"/>
<path d="M1270 605 c13 -14 26 -25 28 -25 3 0 -5 11 -18 25 -13 14 -26 25 -28
25 -3 0 5 -11 18 -25z"/>
<path d="M1142 600 c0 -14 2 -19 5 -12 2 6 2 18 0 25 -3 6 -5 1 -5 -13z"/>
<path d="M994 578 l-29 -33 33 29 c17 17 32 31 32 33 0 8 -8 1 -36 -29z"/>
<path d="M1171 594 c0 -11 3 -14 6 -6 3 7 2 16 -1 19 -3 4 -6 -2 -5 -13z"/>
<path d="M1250 571 c0 -6 4 -13 10 -16 6 -3 7 1 4 9 -7 18 -14 21 -14 7z"/>
<path d="M1181 544 c0 -11 3 -14 6 -6 3 7 2 16 -1 19 -3 4 -6 -2 -5 -13z"/>
<path d="M1142 525 c0 -16 2 -22 5 -12 2 9 2 23 0 30 -3 6 -5 -1 -5 -18z"/>
<path d="M40 225 c0 -148 1 -155 20 -155 18 0 20 7 20 70 l0 70 60 0 c53 0 60
2 60 20 0 18 -7 20 -60 20 l-60 0 0 45 0 45 65 0 c58 0 65 2 65 20 0 18 -7 20
-85 20 l-85 0 0 -155z"/>
<path d="M385 370 c-11 -17 5 -30 36 -30 l29 0 0 -115 0 -115 -36 0 c-28 0
-35 -3 -32 -17 3 -16 15 -18 93 -18 78 0 90 2 93 18 3 14 -4 17 -32 17 l-36 0
0 115 0 115 35 0 c28 0 35 4 35 20 0 19 -7 20 -89 20 -50 0 -93 -4 -96 -10z"/>
<path d="M740 226 c0 -149 1 -156 20 -156 18 0 20 7 20 71 l0 70 28 -3 c22 -2
32 -14 60 -70 24 -49 38 -68 53 -68 26 0 24 15 -15 87 l-33 62 23 22 c17 16
24 34 24 59 0 55 -26 74 -111 78 l-69 4 0 -156z m124 98 c9 -8 16 -22 16 -30
0 -24 -38 -54 -70 -54 -29 0 -30 1 -30 50 l0 50 34 0 c19 0 42 -7 50 -16z"/>
<path d="M1102 228 l3 -153 85 0 c73 0 85 2 88 18 3 15 -5 17 -62 17 l-66 0 0
50 0 50 60 0 c53 0 60 2 60 20 0 18 -7 20 -60 20 l-60 0 0 45 0 44 63 3 c47 2
62 7 62 18 0 12 -18 16 -88 18 l-88 3 3 -153z"/>
<path d="M1460 225 c0 -148 1 -155 20 -155 18 0 20 7 20 70 l0 70 60 0 c53 0
60 2 60 20 0 18 -7 20 -60 20 l-60 0 0 45 0 45 65 0 c58 0 65 2 65 20 0 18 -7
20 -85 20 l-85 0 0 -155z"/>
<path d="M1820 225 l0 -155 85 0 c78 0 85 2 85 20 0 18 -7 20 -65 20 l-65 0 0
135 c0 128 -1 135 -20 135 -19 0 -20 -7 -20 -155z"/>
<path d="M2148 328 c17 -29 42 -73 56 -98 19 -34 26 -59 26 -102 0 -51 2 -58
20 -58 18 0 20 7 20 56 0 49 6 66 55 150 30 53 55 97 55 100 0 2 -10 4 -22 4
-18 0 -32 -16 -64 -76 l-41 -76 -42 76 c-35 64 -46 76 -67 76 l-25 0 29 -52z"/>
</g>
</svg>
